<svg xmlns="http://www.w3.org/2000/svg" width="16" height="16" viewBox="0 0 16 16">
  <defs>
    <linearGradient id="g" x1="0" y1="16" x2="16" y2="0" gradientUnits="userSpaceOnUse">
      <stop offset="0" stop-color="#1420a0"/>
      <stop offset="1" stop-color="#6652f2"/>
    </linearGradient>
  </defs>
  <rect width="16" height="16" rx="3.5" fill="url(#g)"/>
  <g fill="#ffffff" shape-rendering="crispEdges">
    <rect x="11" y="5" width="1" height="1"/>
    <rect x="12" y="5" width="1" height="1"/>
    <rect x="13" y="5" width="1" height="1"/>
    <rect x="11" y="6" width="1" height="1"/>
    <rect x="13" y="6" width="1" height="1"/>
    <rect x="11" y="7" width="1" height="1"/>
    <rect x="12" y="7" width="1" height="1"/>
    <rect x="13" y="7" width="1" height="1"/>
    <rect x="9" y="8" width="1" height="1"/>
    <rect x="10" y="9" width="1" height="1"/>
    <rect x="11" y="9" width="1" height="1"/>
    <rect x="13" y="9" width="1" height="1"/>
    <rect x="6" y="10" width="1" height="1"/>
    <rect x="7" y="10" width="1" height="1"/>
    <rect x="8" y="10" width="1" height="1"/>
    <rect x="10" y="10" width="1" height="1"/>
    <rect x="12" y="10" width="1" height="1"/>
    <rect x="13" y="10" width="1" height="1"/>
    <rect x="6" y="11" width="1" height="1"/>
    <rect x="8" y="11" width="1" height="1"/>
    <rect x="10" y="11" width="1" height="1"/>
    <rect x="11" y="11" width="1" height="1"/>
    <rect x="12" y="11" width="1" height="1"/>
    <rect x="6" y="12" width="1" height="1"/>
    <rect x="7" y="12" width="1" height="1"/>
    <rect x="8" y="12" width="1" height="1"/>
    <rect x="10" y="12" width="1" height="1"/>
    <rect x="11" y="12" width="1" height="1"/>
    <rect x="13" y="12" width="1" height="1"/>

  </g>
  <circle cx="6.5" cy="5.5" r="3" fill="none" stroke="#ffffff" stroke-width="1"/>
  <line x1="4.4" y1="7.8" x2="2.6" y2="9.9" stroke="#ffffff" stroke-width="1.3" stroke-linecap="round"/>
</svg>
